<svg width="21" height="22" viewBox="0 0 21 22" fill="none" xmlns="http://www.w3.org/2000/svg">
<path d="M15.527 20.689H5.46683C3.08646 20.689 1.15784 18.7517 1.15784 16.3713V9.93386C1.15784 8.75236 1.88759 7.2668 2.82584 6.53705L7.5084 2.8883C8.91577 1.79368 11.1658 1.74155 12.6253 2.76668L17.9942 6.52836C19.028 7.24943 19.8359 8.7958 19.8359 10.0555V16.38C19.8359 18.7517 17.9073 20.689 15.527 20.689ZM8.30764 3.91343L3.62509 7.56218C3.00827 8.04867 2.46096 9.15199 2.46096 9.93386V16.3713C2.46096 18.0306 3.80752 19.3859 5.46683 19.3859H15.527C17.1863 19.3859 18.5328 18.0393 18.5328 16.38V10.0555C18.5328 9.22149 17.9334 8.06605 17.2471 7.59693L11.8782 3.83524C10.8878 3.14024 9.25458 3.17499 8.30764 3.91343Z" fill="black" style="fill:black;fill-opacity:1;"/>
<path d="M10.4969 17.2141C10.1407 17.2141 9.84534 16.9187 9.84534 16.5625V13.9562C9.84534 13.6001 10.1407 13.3047 10.4969 13.3047C10.8531 13.3047 11.1485 13.6001 11.1485 13.9562V16.5625C11.1485 16.9187 10.8531 17.2141 10.4969 17.2141Z" fill="black" style="fill:black;fill-opacity:1;"/>
</svg>
