<svg width="14" height="18" viewBox="0 0 14 18" fill="none" xmlns="http://www.w3.org/2000/svg">
<path d="M12.6512 2.34152L11.4093 1.09802C11.0618 0.748749 10.6484 0.471869 10.1932 0.283398C9.73801 0.094927 9.24994 -0.00139199 8.75725 1.51991e-05H4C3.0058 0.00120609 2.05267 0.396677 1.34966 1.09968C0.646661 1.80268 0.251191 2.75582 0.25 3.75002V14.25C0.251191 15.2442 0.646661 16.1973 1.34966 16.9004C2.05267 17.6034 3.0058 17.9988 4 18H10C10.9942 17.9988 11.9473 17.6034 12.6503 16.9004C13.3533 16.1973 13.7488 15.2442 13.75 14.25V4.99277C13.7512 4.50015 13.6547 4.01219 13.4661 3.55711C13.2775 3.10203 13.0006 2.68886 12.6512 2.34152ZM11.5907 3.40202C11.6971 3.508 11.7924 3.62461 11.875 3.75002H10V1.87502C10.1252 1.95851 10.242 2.05395 10.3488 2.16002L11.5907 3.40202ZM12.25 14.25C12.25 14.8468 12.0129 15.4191 11.591 15.841C11.169 16.263 10.5967 16.5 10 16.5H4C3.40326 16.5 2.83097 16.263 2.40901 15.841C1.98705 15.4191 1.75 14.8468 1.75 14.25V3.75002C1.75 3.15328 1.98705 2.58098 2.40901 2.15903C2.83097 1.73707 3.40326 1.50002 4 1.50002H8.5V3.75002C8.5 4.14784 8.65804 4.52937 8.93934 4.81068C9.22064 5.09198 9.60218 5.25002 10 5.25002H12.25V14.25ZM10 6.75002C10.1989 6.75002 10.3897 6.82903 10.5303 6.96969C10.671 7.11034 10.75 7.3011 10.75 7.50002C10.75 7.69893 10.671 7.88969 10.5303 8.03035C10.3897 8.171 10.1989 8.25002 10 8.25002H4C3.80109 8.25002 3.61032 8.171 3.46967 8.03035C3.32902 7.88969 3.25 7.69893 3.25 7.50002C3.25 7.3011 3.32902 7.11034 3.46967 6.96969C3.61032 6.82903 3.80109 6.75002 4 6.75002H10ZM10.75 10.5C10.75 10.6989 10.671 10.8897 10.5303 11.0303C10.3897 11.171 10.1989 11.25 10 11.25H4C3.80109 11.25 3.61032 11.171 3.46967 11.0303C3.32902 10.8897 3.25 10.6989 3.25 10.5C3.25 10.3011 3.32902 10.1103 3.46967 9.96969C3.61032 9.82903 3.80109 9.75002 4 9.75002H10C10.1989 9.75002 10.3897 9.82903 10.5303 9.96969C10.671 10.1103 10.75 10.3011 10.75 10.5ZM10.606 13.0598C10.7226 13.2202 10.7709 13.4202 10.7404 13.6161C10.7099 13.812 10.6031 13.9879 10.4432 14.1053C9.68336 14.6467 8.78335 14.9574 7.85125 15C7.30666 14.9974 6.77861 14.8126 6.35125 14.475C6.10525 14.3063 6.0115 14.25 5.82625 14.25C5.32482 14.3276 4.85171 14.5327 4.45225 14.8455C4.29381 14.9585 4.09768 15.0054 3.90527 14.9765C3.71286 14.9475 3.53924 14.8449 3.42106 14.6903C3.30289 14.5357 3.24942 14.3413 3.27194 14.148C3.29445 13.9547 3.3912 13.7778 3.54175 13.6545C4.20263 13.1415 4.99621 12.8277 5.82925 12.75C6.32885 12.758 6.81184 12.9307 7.20325 13.2413C7.38166 13.4017 7.61137 13.4935 7.85125 13.5C8.46451 13.4541 9.05423 13.2446 9.559 12.8933C9.71995 12.7766 9.92064 12.7286 10.117 12.7598C10.3133 12.791 10.4892 12.8989 10.606 13.0598Z" fill="black" style="fill:black;fill-opacity:1;"/>
</svg>
