<svg width="22" height="22" viewBox="0 0 22 22" fill="none" xmlns="http://www.w3.org/2000/svg">
<path d="M11.2063 10.8651C11.1798 10.8651 11.1622 10.8651 11.1358 10.8651C11.0917 10.8563 11.03 10.8563 10.9771 10.8651C8.42152 10.7858 6.49158 8.77657 6.49158 6.30025C6.49158 3.77988 8.54489 1.72656 11.0653 1.72656C13.5856 1.72656 15.639 3.77988 15.639 6.30025C15.6301 8.77657 13.6914 10.7858 11.2327 10.8651C11.2239 10.8651 11.2151 10.8651 11.2063 10.8651ZM11.0653 3.04844C9.27633 3.04844 7.81345 4.51131 7.81345 6.30025C7.81345 8.06275 9.1882 9.48157 10.9419 9.54325C10.986 9.53444 11.1093 9.53444 11.2239 9.54325C12.9511 9.46394 14.3083 8.04513 14.3171 6.30025C14.3171 4.51131 12.8542 3.04844 11.0653 3.04844Z" fill="black" style="fill:black;fill-opacity:1;"/>
<path d="M11.2151 20.4976C9.48788 20.4976 7.75182 20.057 6.43876 19.1757C5.21382 18.365 4.54407 17.2546 4.54407 16.0473C4.54407 14.84 5.21382 13.7208 6.43876 12.9012C9.08251 11.1475 13.3654 11.1475 15.9915 12.9012C17.2076 13.712 17.8862 14.8223 17.8862 16.0296C17.8862 17.237 17.2165 18.3561 15.9915 19.1757C14.6696 20.057 12.9424 20.4976 11.2151 20.4976ZM7.17019 14.0116C6.32419 14.5756 5.86594 15.2982 5.86594 16.0561C5.86594 16.8051 6.33301 17.5278 7.17019 18.083C9.36451 19.5546 13.0658 19.5546 15.2601 18.083C16.1061 17.519 16.5643 16.7963 16.5643 16.0385C16.5643 15.2894 16.0973 14.5668 15.2601 14.0116C13.0658 12.5487 9.36451 12.5487 7.17019 14.0116Z" fill="black" style="fill:black;fill-opacity:1;"/>
</svg>
